<?xml version="1.0" encoding="utf-8"?>
<!-- Generator: Adobe Illustrator 18.1.1, SVG Export Plug-In . SVG Version: 6.00 Build 0)  -->
<!DOCTYPE svg PUBLIC "-//W3C//DTD SVG 1.1//EN" "http://www.w3.org/Graphics/SVG/1.1/DTD/svg11.dtd">
<svg version="1.1" id="Ebene_1" xmlns="http://www.w3.org/2000/svg" xmlns:xlink="http://www.w3.org/1999/xlink" x="0px" y="0px"
	 viewBox="0 872 2000 254" enable-background="new 0 872 2000 254" xml:space="preserve">
<g>
	<g>
		<g>
			<defs>
				<rect id="SVGID_1_" y="874" width="2486.1" height="252"/>
			</defs>
			<clipPath id="SVGID_2_">
				<use xlink:href="#SVGID_1_"  overflow="visible"/>
			</clipPath>
			<path clip-path="url(#SVGID_2_)" fill="#1E6DBD" d="M140.5,998.3c1.2-7.5,1.2-13.3,1.2-19.1c0-28.3-12.1-38.2-37.6-38.2
				c-36.4,0-64.7,25.4-70.5,69.9l-15.6,111.6H0l27.2-192.5l13.9-1.7L38.7,963l0.6,0.6c15.6-24.3,39.9-37.6,69.9-37.6
				c33.5,0,50.3,16.2,50.3,51.4c0,6.4-0.6,12.7-1.7,20.2l-17.3,124.9h-17.9L140.5,998.3z"/>
		</g>
	</g>
	<g>
		<g>
			<defs>
				<rect id="SVGID_3_" y="874" width="2486.1" height="252"/>
			</defs>
			<clipPath id="SVGID_4_">
				<use xlink:href="#SVGID_3_"  overflow="visible"/>
			</clipPath>
			<path clip-path="url(#SVGID_4_)" fill="#1E6DBD" d="M353.2,929.5h5.2l-26.6,193.1h-13.9l1.2-22.5c0.6-4,1.2-10.4,1.7-13.3
				l-0.6-0.6c-16.2,25.4-41.6,39.3-70.5,39.3c-34.7,0-53.8-17.3-53.8-60.7c0-86.1,45.7-138.7,116.8-138.7
				C330.1,926.6,342.2,929.5,353.2,929.5 M324.9,1041.6l13.9-99.4c-8.7-0.6-17.9-1.7-29.5-1.7c-53.8,0-86.1,34.7-94.2,95.4
				c-1.2,10.4-2.3,19.1-2.3,27.2c0,34.7,13.9,48.6,41,48.6C289.6,1111.6,319.1,1085.5,324.9,1041.6"/>
		</g>
	</g>
	<g>
		<g>
			<defs>
				<rect id="SVGID_5_" y="874" width="2486.1" height="252"/>
			</defs>
			<clipPath id="SVGID_6_">
				<use xlink:href="#SVGID_5_"  overflow="visible"/>
			</clipPath>
			<path clip-path="url(#SVGID_6_)" fill="#1E6DBD" d="M529.5,998.3c1.2-7.5,1.2-13.3,1.2-19.1c0-28.3-12.1-38.2-37.6-38.2
				c-36.4,0-64.7,25.4-70.5,69.9l-15.6,111.6H389l27.2-192.5l13.9-1.7l-2.3,34.7l0.6,0.6c16.2-24.3,40.5-37.6,69.9-37.6
				c33.5,0,50.9,16.2,50.9,51.4c0,6.4-0.6,12.7-1.7,20.2l-17.3,124.9h-17.9L529.5,998.3z"/>
		</g>
	</g>
	<g>
		<g>
			<defs>
				<rect id="SVGID_7_" y="874" width="2486.1" height="252"/>
			</defs>
			<clipPath id="SVGID_8_">
				<use xlink:href="#SVGID_7_"  overflow="visible"/>
			</clipPath>
			<path clip-path="url(#SVGID_8_)" fill="#1E6DBD" d="M742.8,991.9c0,10.4-1.2,21.4-2.9,34.1c-9.8,69.4-35.3,100-90.8,100
				c-44.5,0-63.6-19.1-63.6-65.3c0-10.4,0.6-22,2.9-34.7c9.8-69.4,35.3-100,90.8-100C723.1,926,742.8,945.1,742.8,991.9
				 M606.4,1026.6c-1.7,12.7-2.9,23.7-2.9,33.5c0,38.7,15,52.6,48,52.6c41,0,61.3-23.7,69.9-86.1c1.7-12.1,2.9-23.1,2.9-32.4
				c0-39.3-15.6-53.2-48.6-53.2C634.7,940.5,615,963.6,606.4,1026.6"/>
		</g>
	</g>
	<g>
		<g>
			<defs>
				<rect id="SVGID_9_" y="874" width="2486.1" height="252"/>
			</defs>
			<clipPath id="SVGID_10_">
				<use xlink:href="#SVGID_9_"  overflow="visible"/>
			</clipPath>
			<polygon clip-path="url(#SVGID_10_)" fill="#1E6DBD" points="1013.9,1122.5 1048.6,875.7 1066.5,874 1031.8,1122.5 			"/>
		</g>
	</g>
	<g>
		<g>
			<defs>
				<rect id="SVGID_11_" y="874" width="2486.1" height="252"/>
			</defs>
			<clipPath id="SVGID_12_">
				<use xlink:href="#SVGID_11_"  overflow="visible"/>
			</clipPath>
			<path clip-path="url(#SVGID_12_)" fill="#1E6DBD" d="M1249.1,991.9c0,10.4-1.2,21.4-2.9,34.1c-9.8,69.4-35.3,100-90.8,100
				c-44.5,0-63.6-19.1-63.6-65.3c0-10.4,0.6-22,2.9-34.7c9.2-69.4,35.3-100,90.2-100C1229.5,926,1249.1,945.1,1249.1,991.9
				 M1112.7,1026.6c-1.7,12.7-2.9,23.7-2.9,33.5c0,38.7,15,52.6,48,52.6c41,0,61.3-23.7,69.9-86.1c1.7-12.1,2.9-23.1,2.9-32.4
				c0-39.3-15.6-53.2-48.6-53.2C1141,940.5,1121.4,963.6,1112.7,1026.6"/>
		</g>
	</g>
	<g>
		<g>
			<defs>
				<rect id="SVGID_13_" y="874" width="2486.1" height="252"/>
			</defs>
			<clipPath id="SVGID_14_">
				<use xlink:href="#SVGID_13_"  overflow="visible"/>
			</clipPath>
			<path clip-path="url(#SVGID_14_)" fill="#1E6DBD" d="M1679.2,937.6l-7.5,12.7c-12.7-5.8-23.1-8.7-41-8.7c-42.2,0-65.9,27.7-74,85
				c-1.7,11.6-2.3,21.4-2.3,30.1c0,41,17.3,54.9,46.8,54.9c20.8,0,37-7.5,51.4-20.2l5.8,11c-16.2,15-35.3,23.1-61.8,23.1
				c-38.7,0-60.7-20.2-60.7-69.4c0-9.2,0.6-19.7,2.3-31.2c9.8-64.7,41.6-98.8,93.6-98.8C1649.7,926,1665.3,929.5,1679.2,937.6"/>
		</g>
	</g>
	<g>
		<g>
			<defs>
				<rect id="SVGID_15_" y="874" width="2486.1" height="252"/>
			</defs>
			<clipPath id="SVGID_16_">
				<use xlink:href="#SVGID_15_"  overflow="visible"/>
			</clipPath>
			<path clip-path="url(#SVGID_16_)" fill="#1E6DBD" d="M1828.9,1024.3l-115.6,9.8c-1.2,8.1-1.2,15-1.2,22
				c0,41.6,17.9,55.5,48.6,55.5c22.5,0,42.2-6.9,57.2-20.2l5.2,11c-16.2,15-39.3,24.3-67.1,24.3c-37.6,0-61.3-18.5-61.3-69.4
				c0-9.2,0.6-19.7,2.3-30.6c8.7-66.5,39.9-100.6,90.2-100.6c35.8,0,51.4,29.5,51.4,50.3C1838.7,992.5,1835.8,1004,1828.9,1024.3
				 M1822.5,978.6c0-20.2-11.6-39.3-37-39.3c-40.5,0-62.4,28.9-70.5,81.5l101.7-9.8C1820.8,1000.6,1822.5,992.5,1822.5,978.6"/>
		</g>
	</g>
	<g>
		<g>
			<defs>
				<rect id="SVGID_17_" y="874" width="2486.1" height="252"/>
			</defs>
			<clipPath id="SVGID_18_">
				<use xlink:href="#SVGID_17_"  overflow="visible"/>
			</clipPath>
			<polygon clip-path="url(#SVGID_18_)" fill="#1E6DBD" points="1861.8,1122.5 1896.5,875.7 1914.5,874 1879.8,1122.5 			"/>
		</g>
	</g>
	<g>
		<g>
			<defs>
				<rect id="SVGID_19_" y="874" width="2486.1" height="252"/>
			</defs>
			<clipPath id="SVGID_20_">
				<use xlink:href="#SVGID_19_"  overflow="visible"/>
			</clipPath>
			<polygon clip-path="url(#SVGID_20_)" fill="#1E6DBD" points="1939.9,1122.5 1974.6,875.7 1992.5,874 1957.8,1122.5 			"/>
		</g>
	</g>
	<g>
		<g>
			<defs>
				<rect id="SVGID_21_" y="874" width="2486.1" height="252"/>
			</defs>
			<clipPath id="SVGID_22_">
				<use xlink:href="#SVGID_21_"  overflow="visible"/>
			</clipPath>
			<polygon clip-path="url(#SVGID_22_)" fill="#1E6DBD" points="1505.8,928.3 1434.7,1104.6 1416.2,928.3 1397.7,928.3 
				1325.4,1103.5 1307.5,927.2 1290.8,929.5 1309.8,1122.5 1333.5,1122.5 1403.5,953.2 1421.4,1122.5 1446.8,1122.5 1524.9,928.3 
							"/>
		</g>
	</g>
	<g>
		<g>
			<defs>
				<rect id="SVGID_23_" y="874" width="2486.1" height="252"/>
			</defs>
			<clipPath id="SVGID_24_">
				<use xlink:href="#SVGID_23_"  overflow="visible"/>
			</clipPath>
			<path clip-path="url(#SVGID_24_)" fill="#1E6DBD" d="M916.2,892.5h97.1l2.3-16.2H912.1c-24.3,0-41.6,10.4-45.1,34.7l-23.7,168.2
				c-2.9,19.7-12.7,27.2-28.3,27.2c-11.6,0.6-71.1,2.3-71.1,2.3l-2.3,15.6c0,0,67.1-1.2,72.8-1.2c29.5-0.6,43.9-12.1,47.4-41
				c3.5-27.7,11-79.2,11-79.2h105.8l1.7-15.6H874.6l9.8-70.5C886.7,901.2,896.5,892.5,916.2,892.5"/>
		</g>
	</g>
</g>
</svg>
