<?xml version="1.0" encoding="utf-8"?>
<!-- Generator: Adobe Illustrator 18.1.1, SVG Export Plug-In . SVG Version: 6.00 Build 0)  -->
<!DOCTYPE svg PUBLIC "-//W3C//DTD SVG 1.1//EN" "http://www.w3.org/Graphics/SVG/1.1/DTD/svg11.dtd">
<svg version="1.1"
	 id="svg2" xmlns:svg="http://www.w3.org/2000/svg" xmlns:rdf="http://www.w3.org/1999/02/22-rdf-syntax-ns#" xmlns:dc="http://purl.org/dc/elements/1.1/" xmlns:inkscape="http://www.inkscape.org/namespaces/inkscape" xmlns:cc="http://creativecommons.org/ns#"
	 xmlns="http://www.w3.org/2000/svg" xmlns:xlink="http://www.w3.org/1999/xlink" x="0px" y="0px" viewBox="-977 978 45 45"
	 enable-background="new -977 978 45 45" xml:space="preserve">
<g id="g10" transform="matrix(1.25,0,0,-1.25,0,45)">
	<g id="g12">
		<g>
			<defs>
				<polyline id="SVGID_1_" points="-781.6,-782.4 -781.6,-746.4 -745.6,-746.4 -745.6,-782.4 -781.6,-782.4 				"/>
			</defs>
			<clipPath id="SVGID_2_">
				<use xlink:href="#SVGID_1_"  overflow="visible"/>
			</clipPath>
			<g id="g14" clip-path="url(#SVGID_2_)">
				<g id="g20">
					<g id="g22">
						<g id="g24">
							<path id="path26" fill="#2B2B2B" d="M-824.4-753.4v-21c0-0.8,0.7-1.5,1.5-1.5h32.9c0.8,0,1.5,0.7,1.5,1.5v21
								c0,0.8-0.7,1.5-1.5,1.5h-32.9C-823.7-751.8-824.4-752.5-824.4-753.4z"/>
						</g>
					</g>
					<g id="g28">
						<g id="g30">
							<path id="path32" fill="#525252" d="M-806.4-767.2l-18,12.2v1.6c0,0.8,0.7,1.5,1.5,1.5h32.9c0.8,0,1.5-0.7,1.5-1.5v-1.4
								C-788.4-754.8-806.4-767.2-806.4-767.2z"/>
						</g>
					</g>
					<g id="g34">
						<g id="g36">
							<path id="path38" fill="none" stroke="#FFFFFF" stroke-width="1.44" stroke-linecap="round" stroke-miterlimit="10" d="
								M-780.9-754.3v-20.1c0-0.8,0.7-1.5,1.5-1.5h31.6c0.8,0,1.5,0.7,1.5,1.5v20.1c0,0.8-0.7,1.5-1.5,1.5h-31.6
								C-780.2-752.9-780.9-753.5-780.9-754.3z"/>
						</g>
					</g>
					<g id="g40">
						<g id="g42">
							<path id="path44" fill="none" stroke="#FFFFFF" stroke-width="1.44" stroke-linecap="round" stroke-miterlimit="10" d="
								M-763.6-767.6l-17.3,11.7v1.5c0,0.8,0.7,1.5,1.5,1.5h31.6c0.8,0,1.5-0.7,1.5-1.5v-1.3C-746.3-755.7-763.6-767.6-763.6-767.6z
								"/>
						</g>
					</g>
				</g>
			</g>
		</g>
	</g>
</g>
</svg>
